<svg id="Layer_1" data-name="Layer 1" xmlns="http://www.w3.org/2000/svg" viewBox="0 0 187.86 158.32"><defs><style>.cls-1{fill:#2dbec2;}</style></defs><circle class="cls-1" cx="172.97" cy="79.16" r="14.89"/><path class="cls-1" d="M228,145.84a34.48,34.48,0,0,1,6.2-19.79,3.39,3.39,0,0,0-4.89-4.61,31.25,31.25,0,0,0,0,48.79,3.39,3.39,0,0,0,4.89-4.6A34.48,34.48,0,0,1,228,145.84Z" transform="translate(-80.88 -66.68)"/><path class="cls-1" d="M208.28,145.84a49.26,49.26,0,0,1,8.85-28.25,4.83,4.83,0,0,0-7-6.57,44.58,44.58,0,0,0,0,69.64,4.83,4.83,0,0,0,7-6.57A49.26,49.26,0,0,1,208.28,145.84Z" transform="translate(-80.88 -66.68)"/><path class="cls-1" d="M185,145.84a64,64,0,0,1,11.5-36.71c4.21-6-3.32-13.14-9.06-8.54a57.95,57.95,0,0,0,0,90.5c5.74,4.6,13.27-2.5,9.06-8.54A64,64,0,0,1,185,145.84Z" transform="translate(-80.88 -66.68)"/><path class="cls-1" d="M153.21,145.84a82,82,0,0,1,14.74-47c5.38-7.73-4.25-16.82-11.61-10.93a74.2,74.2,0,0,0,0,115.9c7.36,5.89,17-3.21,11.61-10.94A81.93,81.93,0,0,1,153.21,145.84Z" transform="translate(-80.88 -66.68)"/><path class="cls-1" d="M113.6,145.84a108.43,108.43,0,0,1,19.49-62.2c7.12-10.22-5.63-22.26-15.36-14.46a98.16,98.16,0,0,0,0,153.32c9.73,7.79,22.48-4.24,15.36-14.47A108.37,108.37,0,0,1,113.6,145.84Z" transform="translate(-80.88 -66.68)"/></svg>